<?xml version="1.0" standalone="no"?>
<!DOCTYPE svg PUBLIC "-//W3C//DTD SVG 20010904//EN"
 "http://www.w3.org/TR/2001/REC-SVG-20010904/DTD/svg10.dtd">
<svg version="1.0" xmlns="http://www.w3.org/2000/svg"
 width="260.000000pt" height="260.000000pt" viewBox="0 0 260.000000 260.000000"
 preserveAspectRatio="xMidYMid meet">
<metadata>
Created by potrace 1.11, written by Peter Selinger 2001-2013
</metadata>
<g transform="translate(0.000000,260.000000) scale(0.100000,-0.100000)"
fill="#000000" stroke="none">
<path d="M678 1998 l-206 -423 125 -3 c120 -2 127 -1 170 24 125 73 301 121
408 111 97 -9 168 -41 239 -108 80 -74 109 -137 110 -229 0 -364 -553 -700
-1213 -737 l-114 -6 -49 -105 c-27 -57 -55 -120 -63 -140 l-15 -35 177 6 c545
17 978 182 1289 492 145 144 203 234 409 635 209 404 445 894 445 921 0 5 -67
9 -150 9 l-150 0 -183 -366 -183 -367 -32 49 c-55 86 -121 139 -229 181 -64
26 -78 27 -223 27 -127 0 -171 -4 -244 -22 -49 -12 -90 -21 -92 -19 -2 1 29
63 69 137 l72 135 322 3 322 2 65 119 c36 65 66 121 66 125 0 3 -210 6 -468 6
l-467 0 -207 -422z"/>
</g>
</svg>
