<?xml version="1.0" encoding="utf-8"?>
<!-- Generator: Adobe Illustrator 19.2.0, SVG Export Plug-In . SVG Version: 6.00 Build 0)  -->
<svg version="1.1" id="Layer_1" xmlns="http://www.w3.org/2000/svg" xmlns:xlink="http://www.w3.org/1999/xlink" x="0px" y="0px"
	 viewBox="0 0 129 193.4" style="enable-background:new 0 0 129 193.4;" xml:space="preserve">
<style type="text/css">
	.st0{fill:#868686;}
</style>
<title>logo</title>
<g>
	<polygon points="90.3,42.4 44.4,42.4 24.3,83.5 37,83.5 52.2,54.8 83.4,54.8 	"/>
	<path d="M37,83.5c0,0,22.2-15.1,35.2,0.6c13,15.7-11.6,44.4-61.3,45.4l-6.1,13.4c0,0,59.8,5.3,84.1-40.9
		C112.9,56.2,118,42.7,118,42.7h-15l-17.9,36c0,0-7.3-21.8-43-9.3L37,83.5z"/>
	<path class="st0" d="M70.6,86c-13-15.2-32.1-0.3-32.1-0.3H26.5l5.4,4.9h11.4C43.3,90.6,57.5,74.9,70.6,86z"/>
	<path class="st0" d="M84.9,57H53.6L49.2,65c1.5-0.5,6-1.5,7.4-1.8l1.3-1.4h31.9l6.5-12.4l-4.5-4.9L84.9,57z"/>
	<path class="st0" d="M119.5,45.2c-2.4,5.6-10.7,23.8-29.2,58.9c-20.8,39.6-70.4,41.4-83.4,41.1l5.6,5c0,0,60.2,0.6,82.7-43.7
		C118.5,60.4,124,50.4,124,50.4L119.5,45.2z"/>
</g>
</svg>
