<svg id="Layer_1" data-name="Layer 1" xmlns="http://www.w3.org/2000/svg" viewBox="0 0 128.97 193.36"><defs><style>.cls-1,.cls-2{fill:#231f20;}.cls-1{stroke:#231f20;stroke-miterlimit:10;stroke-width:0.25px;}</style></defs><title>logo</title><path class="cls-1" d="M82.26,126.68v10a0.88,0.88,0,0,1-.26.64,0.9,0.9,0,0,1-1.54-.64v-10H77.82a0.9,0.9,0,0,1,0-1.8h7a0.9,0.9,0,0,1,0,1.8h-2.6Z" transform="translate(-23.88 -30.26)"/><path class="cls-1" d="M87.55,125.81a0.9,0.9,0,0,1,1.8,0v2.9h7v-2.9a0.9,0.9,0,0,1,1.8,0v10.88a0.91,0.91,0,0,1-.9.9,0.91,0.91,0,0,1-.9-0.9v-6.18h-7v6.18a0.9,0.9,0,0,1-1.8,0V125.81Z" transform="translate(-23.88 -30.26)"/><path class="cls-1" d="M50.55,193.68a4.54,4.54,0,0,0,4.52-4.54v-9a0.9,0.9,0,0,1,1.8,0v9a6.34,6.34,0,0,1-6.31,6.34h0A0.9,0.9,0,0,1,50.55,193.68Z" transform="translate(-23.88 -30.26)"/><path class="cls-1" d="M69.44,181.13A6.34,6.34,0,1,1,65,179.27,6.1,6.1,0,0,1,69.44,181.13ZM65,181.07a4.54,4.54,0,1,0,3.21,1.33A4.36,4.36,0,0,0,65,181.07Z" transform="translate(-23.88 -30.26)"/><path class="cls-1" d="M77.56,191.95a4.53,4.53,0,0,1-3.07-1.31,4.26,4.26,0,0,1-1.29-3.07v-7.39a0.85,0.85,0,0,1,.27-0.66,1,1,0,0,1,1.27,0,0.83,0.83,0,0,1,.26.65v7.39a1.25,1.25,0,0,1,0,.16,2.47,2.47,0,0,0,.76,1.67,2.53,2.53,0,0,0,1.86.77h0a2.53,2.53,0,0,0,1.86-.77,2.46,2.46,0,0,0,.76-1.67c0-.05,0-0.11,0-0.16v-7.39a0.82,0.82,0,0,1,.27-0.65,1,1,0,0,1,1.27,0,0.85,0.85,0,0,1,.26.66v7.39a4.24,4.24,0,0,1-1.29,3.07,4.52,4.52,0,0,1-3.07,1.31H77.56Z" transform="translate(-23.88 -30.26)"/><path class="cls-1" d="M89,186.59a4,4,0,0,1-.67.05H85.63V191a0.9,0.9,0,0,1-1.81,0V180.17a0.91,0.91,0,0,1,.9-0.9h3.63A3.69,3.69,0,0,1,91,185.56l-0.29.27,2.75,4.78a0.83,0.83,0,0,1,.13.43,0.94,0.94,0,0,1,0,.25,0.87,0.87,0,0,1-.43.55,0.85,0.85,0,0,1-.43.12,0.9,0.9,0,0,1-.25,0,0.87,0.87,0,0,1-.55-0.41ZM88.36,181H85.63v3.83h2.72A1.91,1.91,0,1,0,88.36,181Z" transform="translate(-23.88 -30.26)"/><path class="cls-1" d="M97,182.7V191a0.9,0.9,0,0,1-1.8,0V180.17a0.9,0.9,0,0,1,1.54-.64,0.94,0.94,0,0,1,.17.23l7.13,8.81v-8.4a0.9,0.9,0,0,1,1.81,0V191a0.9,0.9,0,0,1-1.54.64l-0.07-.06Z" transform="translate(-23.88 -30.26)"/><path class="cls-1" d="M107.54,180.17a0.91,0.91,0,0,1,.9-0.9h7a0.91,0.91,0,0,1,.9.9,0.9,0.9,0,0,1-.9.9h-6.08v2H112a0.9,0.9,0,0,1,.9.9,0.91,0.91,0,0,1-.9.9h-2.64v5.27h6.08a0.9,0.9,0,0,1,0,1.8h-7a0.91,0.91,0,0,1-.9-0.9V180.17Z" transform="translate(-23.88 -30.26)"/><path class="cls-1" d="M118.23,180.15a0.89,0.89,0,0,1,1.51-.63,0.93,0.93,0,0,1,.17.23l2.74,4,2.8-4.11,0.12-.13a0.88,0.88,0,0,1,1.25,0,0.85,0.85,0,0,1,.25.62,0.83,0.83,0,0,1-.21.57l-3.32,4.86v5.47a0.88,0.88,0,1,1-1.77,0V185.6l-3.39-4.94A0.88,0.88,0,0,1,118.23,180.15Z" transform="translate(-23.88 -30.26)"/><path class="cls-2" d="M136.32,223.63H40.4A16.49,16.49,0,0,1,23.88,207.2V46.69A16.49,16.49,0,0,1,40.4,30.26h95.92a16.49,16.49,0,0,1,16.52,16.42V207.2A16.49,16.49,0,0,1,136.32,223.63ZM40.4,40.35A6.39,6.39,0,0,0,34,46.69V207.2a6.4,6.4,0,0,0,6.44,6.34h95.92a6.4,6.4,0,0,0,6.44-6.34V46.69a6.39,6.39,0,0,0-6.44-6.34H40.4Z" transform="translate(-23.88 -30.26)"/><path class="cls-2" d="M113.78,105.19A35.67,35.67,0,0,0,87.6,94.37a37.75,37.75,0,0,0-7.56.75l5.64-15.42h24.44V86L124,72.12,110.11,58.24v6.33H80.34a9.22,9.22,0,0,0-3.71.89,6.65,6.65,0,0,0-3.41,4.08L59.28,107.86a6.85,6.85,0,0,0,.22,5.71,7.44,7.44,0,0,0,4.3,4,7.53,7.53,0,0,0,2.52.45,7.9,7.9,0,0,0,5.49-2.3L72,115.87a0.21,0.21,0,0,1,.07-0.15,22.11,22.11,0,0,1,31.1,0A22,22,0,0,1,87.6,153.32a22,22,0,0,1-22-22H65.43a7.41,7.41,0,1,0-14.83,0v0.08a37,37,0,0,0,37,37,37,37,0,0,0,37-37A35.66,35.66,0,0,0,113.78,105.19Z" transform="translate(-23.88 -30.26)"/></svg>